# xmcd CD database file
#
# Track frame offsets:
#	150
#	20630
#	44470
#	57085
#	74640
#	90570
#	102967
#	119582
#	141085
#
# Disc length: 2058 seconds
#
# Revision: 2
# Processed by: cddbd v1.5.1PL0 Copyright (c) Steve Scherf et al.
# Submitted via: CDex 1.51
#
DISCID=81080809
DTITLE=Johnny Winter - Johnny Winter
DYEAR=1900
DGENRE=Blues
TTITLE0=I'm Yours And I'm Hers
TTITLE1=Be Careful With A Fool
TTITLE2=Dallas
TTITLE3=Mean Mistreater
TTITLE4=Leland Mississippi Blues
TTITLE5=Good Morning LIttle Schoolgirl
TTITLE6=When You Got A Good Friend
TTITLE7=I'll Drown In My Tears
TTITLE8=Back Door Friend
EXTD=
EXTT0=
EXTT1=
EXTT2=
EXTT3=
EXTT4=
EXTT5=
EXTT6=
EXTT7=
EXTT8=
PLAYORDER=
